<?xml version="1.0" standalone="no"?>
<!DOCTYPE svg PUBLIC "-//W3C//DTD SVG 1.1//EN" "http://www.w3.org/Graphics/SVG/1.1/DTD/svg11.dtd" >
<svg xmlns="http://www.w3.org/2000/svg">
<metadata>Generated by IcoMoon</metadata>
<defs>
<font id="carousel-icons" horiz-adv-x="1024">
<font-face units-per-em="1024" ascent="960" descent="-64" />
<missing-glyph horiz-adv-x="1024" />
<glyph unicode="&#x20;" d="" horiz-adv-x="512" />
<glyph unicode="&#xe600;" d="M0 448c0-282.317 229.724-512 512-512 282.378 0 512 229.683 512 512s-229.622 512-512 512c-282.276 0-512-229.683-512-512zM571.146 435.18l-169.902 169.943 46.305 46.346 216.289-216.289-200.827-200.786-46.346 46.346 154.481 154.44z" />
<glyph unicode="&#xe601;" d="M512 960c-282.378 0-512-229.683-512-512s229.622-512 512-512c282.276 0 512 229.683 512 512s-229.724 512-512 512zM607.334 280.74l-46.346-46.346-200.827 200.786 216.289 216.289 46.305-46.346-169.902-169.943 154.481-154.44z" />
<glyph unicode="&#xe602;" d="M447.549 656.527l216.269-216.289-200.827-200.786-46.326 46.346 154.481 154.44-169.902 169.943zM0 448c0-282.317 229.724-512 512-512 282.378 0 512 229.683 512 512s-229.622 512-512 512c-282.276 0-512-229.683-512-512zM63.98 448c0 247.030 200.991 448 448.020 448 247.071 0 447.98-200.97 447.98-448s-200.909-448-447.98-448c-247.030 0-448.020 200.97-448.020 448z" />
<glyph unicode="&#xe603;" d="M576.451 656.527l-216.269-216.289 200.827-200.786 46.326 46.346-154.481 154.44 169.902 169.943zM512 960c-282.378 0-512-229.683-512-512s229.622-512 512-512c282.276 0 512 229.683 512 512s-229.724 512-512 512zM512 0c-247.071 0-447.98 200.97-447.98 448s200.909 448 447.98 448c247.030 0 448.020-200.97 448.020-448s-200.991-448-448.020-448z" />
<glyph unicode="&#xe604;" d="M0 448c0-282.317 229.7-512 512.068-512 282.231 0 511.932 229.683 511.932 512s-229.7 512-511.932 512c-282.368 0-512.068-229.683-512.068-512zM64 448c0 247.040 200.994 448 448.068 448 247.006 0 447.932-200.96 447.932-448s-200.926-448-447.932-448c-247.074 0-448.068 200.96-448.068 448zM497.613 709.615h142.012l164.54-250.931-164.54-261.069h-142.012l115.814 192h-360.431v128h363.127z" />
<glyph unicode="&#xe605;" d="M511.932 960c-282.231 0-511.932-229.683-511.932-512s229.7-512 511.932-512c282.368 0 512.068 229.683 512.068 512s-229.7 512-512.068 512zM511.932 0c-247.006 0-447.932 200.96-447.932 448s200.926 448 447.932 448c247.074 0 448.068-200.96 448.068-448s-200.994-448-448.068-448zM526.387 709.615h-142.012l-164.54-250.931 164.54-261.069h142.012l-115.814 192h360.431v128h-363.127z" />
<glyph unicode="&#xe606;" d="M85.333 448l170.667-512-68.267 512 68.267 512z" horiz-adv-x="341" />
<glyph unicode="&#xe607;" d="M256 448l-170.667-512 68.267 512-68.267 512z" horiz-adv-x="341" />
<glyph unicode="&#xe608;" d="M511.959-43.52c-271.012 0-491.479 220.488-491.479 491.52 0 271.012 220.467 491.52 491.479 491.52 271.032 0 491.561-220.508 491.561-491.52 0-271.032-220.529-491.52-491.561-491.52zM511.959 878.080c-237.138 0-430.039-192.942-430.039-430.080 0-237.158 192.922-430.080 430.039-430.080 237.158 0 430.121 192.922 430.121 430.080 0 237.138-192.963 430.080-430.121 430.080zM312.484 448.041l165.007-124.355v77.435h192.963v93.819h-192.963v77.394z" />
<glyph unicode="&#xe609;" d="M20.48 448c0 271.012 220.529 491.52 491.561 491.52 271.012 0 491.479-220.508 491.479-491.52 0-271.032-220.467-491.52-491.479-491.52-271.032 0-491.561 220.488-491.561 491.52zM81.92 448c0-237.158 192.963-430.080 430.121-430.080 237.117 0 430.039 192.922 430.039 430.080 0 237.138-192.922 430.080-430.039 430.080-237.158 0-430.121-192.942-430.121-430.080zM711.516 448.041l-165.007-124.355v77.435h-192.963v93.819h192.963v77.394z" />
<glyph unicode="&#xe60a;" d="M51.2 448l256 512-166.093-512 166.093-512z" horiz-adv-x="341" />
<glyph unicode="&#xe60b;" d="M290.133 448l-256 512 166.093-512-166.093-512z" horiz-adv-x="341" />
<glyph unicode="&#xe60c;" d="M256-64l-170.667 512 170.667 512-0.119-263.253-82.91-248.747 82.91-243.2z" horiz-adv-x="341" />
<glyph unicode="&#xe60d;" d="M85.333-64l170.667 512-170.667 512 0.119-263.253 82.91-248.747-82.91-243.2z" horiz-adv-x="341" />
<glyph unicode="&#xe60e;" d="M226.27-64l-175.070 512 175.070 512 80.93-26.3-166.093-485.7 166.093-485.7z" horiz-adv-x="341" />
<glyph unicode="&#xe60f;" d="M132.13-64l175.070 512-175.070 512-80.93-26.3 166.093-485.7-166.093-485.7z" horiz-adv-x="341" />
<glyph unicode="&#xe610;" d="M256 960l-170.667-512 170.667-512z" horiz-adv-x="341" />
<glyph unicode="&#xe611;" d="M85.333 960l170.667-512-170.667-512z" horiz-adv-x="341" />
<glyph unicode="&#xe612;" d="M234.619 548.987c-12.247 12.063-26.665 21.422-43.213 28.078-16.568 6.676-34.57 9.994-54.006 9.994s-37.54-3.318-54.272-9.994c-16.753-6.656-31.212-15.995-43.459-28.078-12.268-12.063-21.873-26.726-28.897-43.991-7.045-17.306-10.568-36.372-10.568-57.242 0-21.279 3.523-40.346 10.568-57.221 7.025-16.916 16.65-31.396 28.897-43.479 12.247-12.083 26.706-21.32 43.459-27.791 16.732-6.472 34.836-9.728 54.272-9.728s37.437 3.236 54.006 9.728 30.986 15.729 43.213 27.791 21.77 26.563 28.611 43.479c6.84 16.876 10.24 35.963 10.24 57.221 0 20.869-3.4 39.936-10.24 57.242-6.82 17.265-16.364 31.928-28.611 43.991zM187.924 394.281c-12.431-13.681-29.45-20.521-51.077-20.521-21.565 0-38.646 6.84-51.036 20.521s-18.596 31.683-18.596 53.985c0 22.323 6.205 40.325 18.596 54.006 12.39 13.681 29.471 20.541 51.036 20.541 21.647 0 38.646-6.84 51.077-20.541 12.39-13.681 18.596-31.662 18.596-54.006 0-22.303-6.205-40.305-18.596-53.985zM997.192 580.301c-17.961 40.858-42.455 76.411-73.421 106.66-30.986 30.228-67.154 54.088-108.564 71.537-41.411 17.469-85.709 26.194-132.895 26.194-47.165 0-91.443-8.745-132.874-26.194-41.349-17.449-77.517-41.308-108.483-71.537-31.007-30.249-55.48-65.782-73.482-106.66-18.002-40.878-26.993-84.869-26.993-132.035 0-47.145 8.991-91.238 26.993-132.301 18.002-41.001 42.476-76.636 73.482-106.885 30.966-30.29 67.133-54.129 108.483-71.516 41.431-17.49 85.729-26.235 132.874-26.235 47.206 0 91.484 8.765 132.895 26.235 41.39 17.408 77.578 41.247 108.564 71.516 30.966 30.249 55.46 65.884 73.421 106.885 18.043 41.083 26.993 85.156 26.993 132.301 0.020 47.165-8.95 91.156-26.993 132.035zM830.71 409.047h-220.14l70.738-116.879h-81.838l-100.475 158.945 100.475 152.781h81.838l-72.376-116.9h221.757v-77.947z" />
<glyph unicode="&#xe613;" d="M761.16 504.996c-6.84-17.306-10.24-36.372-10.24-57.242 0-21.279 3.4-40.346 10.24-57.221 6.84-16.916 16.384-31.396 28.611-43.479s26.665-21.32 43.213-27.791 34.57-9.728 54.006-9.728 37.54 3.236 54.272 9.728c16.753 6.472 31.212 15.729 43.459 27.791 12.268 12.083 21.873 26.563 28.897 43.479 7.045 16.876 10.568 35.963 10.568 57.221 0 20.869-3.523 39.936-10.568 57.242-7.025 17.265-16.65 31.928-28.897 43.991-12.247 12.063-26.706 21.422-43.459 28.078-16.732 6.676-34.836 9.994-54.272 9.994s-37.437-3.318-54.006-9.994c-16.568-6.656-30.986-15.995-43.213-28.078-12.227-12.063-21.77-26.726-28.611-43.991zM817.889 448.266c0 22.323 6.205 40.325 18.596 54.006 12.431 13.681 29.45 20.541 51.077 20.541 21.565 0 38.646-6.84 51.036-20.541 12.39-13.681 18.596-31.662 18.596-54.006 0-22.303-6.205-40.305-18.596-53.985s-29.471-20.521-51.036-20.521c-21.647 0-38.646 6.84-51.077 20.521-12.411 13.681-18.596 31.683-18.596 53.985zM0.205 448.266c0-47.145 8.97-91.238 26.993-132.301 17.961-41.001 42.455-76.636 73.421-106.885 30.986-30.29 67.154-54.129 108.564-71.516 41.411-17.49 85.709-26.235 132.895-26.235 47.165 0 91.443 8.765 132.874 26.235 41.349 17.408 77.517 41.247 108.483 71.516 31.007 30.249 55.48 65.884 73.482 106.885 18.002 41.083 26.993 85.156 26.993 132.301 0 47.165-8.991 91.156-26.993 132.035-18.002 40.858-42.476 76.411-73.482 106.66-30.966 30.228-67.133 54.088-108.483 71.537-41.431 17.469-85.729 26.194-132.874 26.194-47.206 0-91.484-8.745-132.895-26.194-41.39-17.449-77.578-41.308-108.564-71.537-30.966-30.249-55.46-65.782-73.421-106.66-18.043-40.878-26.993-84.869-26.993-132.035zM193.7 486.994h221.757l-72.376 116.9h81.838l100.475-152.781-100.475-158.945h-81.838l70.738 116.879h-220.119v77.947z" />
<glyph unicode="&#xe614;" d="M1024 500.041h-142.519c-28.526 178.578-182.857 315.136-369.481 315.136s-340.992-136.558-369.518-315.136h-142.482v-119.113h142.482c28.526-178.578 182.894-315.136 369.518-315.136s340.919 136.558 369.481 315.136h142.519v119.113z" />
<glyph unicode="&#xe615;" d="M761.381 500.041c-26.953 112.896-128.366 197.12-249.381 197.12-121.088 0-222.464-84.261-249.417-197.157h-262.583v-119.113h262.583c26.953-112.859 128.366-197.12 249.417-197.12 121.015 0 222.427 84.261 249.381 197.12h262.619v119.113h-262.619zM512 293.522c-59.794 0-111.214 36.059-134.107 87.406-8.192 18.286-12.873 38.363-12.873 59.575s4.681 41.289 12.873 59.538c22.894 51.383 74.313 87.442 134.107 87.442 59.758 0 111.141-36.023 134.071-87.442 8.155-18.249 12.91-38.327 12.91-59.538s-4.754-41.289-12.91-59.575c-22.93-51.31-74.313-87.406-134.071-87.406z" />
<glyph unicode="&#xe616;" d="M512 960c-282.368 0-512-229.683-512-512 0-282.266 229.632-512 512-512 282.317 0 512 229.683 512 512 0 282.317-229.683 512-512 512zM512 243.2c-113.101 0-204.8 91.699-204.8 204.8s91.699 204.8 204.8 204.8 204.8-91.699 204.8-204.8-91.699-204.8-204.8-204.8z" />
<glyph unicode="&#xe617;" d="M512 960c-282.368 0-512-229.683-512-512 0-282.266 229.632-512 512-512 282.317 0 512 229.683 512 512 0 282.317-229.683 512-512 512zM722.995 151.808l-210.995 153.293-210.944-153.293 80.589 248.013-210.995 153.293h260.762l80.589 247.962 80.589-248.013h260.71l-210.893-153.293 80.589-247.962z" />
<glyph unicode="&#xe618;" d="M512 960c-282.368 0-512-229.734-512-512 0-282.266 229.632-512 512-512 282.317 0 512 229.683 512 512 0 282.266-229.683 512-512 512zM512 0c-247.091 0-448 201.011-448 448s200.909 448 448 448c246.989 0 447.949-201.011 447.949-448 0-246.989-200.96-448-447.949-448zM853.35 448c0-188.523-152.828-341.35-341.35-341.35s-341.35 152.828-341.35 341.35c0 188.523 152.828 341.35 341.35 341.35 188.523 0 341.35-152.828 341.35-341.35z" />
<glyph unicode="&#xe619;" d="M512 960c-282.368 0-512-229.683-512-512 0-282.266 229.632-512 512-512 282.317 0 512 229.683 512 512 0 282.317-229.683 512-512 512zM512 0c-247.091 0-448 201.011-448 448 0 247.040 200.909 448 448 448 246.989 0 448-200.96 448-448 0-246.989-201.011-448-448-448z" />
<glyph unicode="&#xe61a;" d="M0 448c0-282.317 229.7-512 512.068-512 282.231 0 511.932 229.683 511.932 512s-229.7 512-511.932 512c-282.368 0-512.068-229.683-512.068-512zM252.996 517.615h363.11l-118.494 192h141.995l164.557-250.931-164.557-261.069h-141.995l115.814 192h-360.431v128z" />
<glyph unicode="&#xe61b;" d="M511.932 960c-282.231 0-511.932-229.683-511.932-512s229.7-512 511.932-512c282.368 0 512.068 229.683 512.068 512s-229.7 512-512.068 512zM771.004 389.615h-360.431l115.814-192h-141.995l-164.557 261.069 164.557 250.931h141.995l-118.494-192h363.11v-128z" />
<glyph unicode="&#xe61c;" d="M461.422 960v-142.519c-178.578-28.562-315.136-182.857-315.136-369.481s136.558-340.992 315.136-369.518v-142.482h119.15v142.482c178.578 28.489 315.136 182.894 315.136 369.518s-136.558 340.919-315.136 369.481v142.519h-119.15z" />
<glyph unicode="&#xe61d;" d="M453.157 697.381c-112.896-26.953-197.157-128.366-197.157-249.381 0-121.088 84.261-222.464 197.157-249.417v-262.583h119.113v262.583c112.859 26.953 197.12 128.366 197.12 249.417 0 121.015-84.261 222.427-197.12 249.381v262.619h-119.113v-262.619zM659.639 448c0-59.794-36.059-111.214-87.406-134.107-18.286-8.192-38.363-12.873-59.575-12.873s-41.289 4.681-59.538 12.873c-51.383 22.894-87.406 74.313-87.406 134.107 0 59.758 36.023 111.141 87.442 134.071 18.249 8.155 38.327 12.91 59.538 12.91s41.289-4.754 59.575-12.91c51.31-22.93 87.369-74.313 87.369-134.071z" />
</font>
</defs>
</svg>
